<svg width="16" height="16" viewBox="0 0 16 16" fill="none" xmlns="http://www.w3.org/2000/svg">
<path d="M7.99998 8.66683C8.36817 8.66683 8.66665 8.36835 8.66665 8.00016C8.66665 7.63197 8.36817 7.3335 7.99998 7.3335C7.63179 7.3335 7.33331 7.63197 7.33331 8.00016C7.33331 8.36835 7.63179 8.66683 7.99998 8.66683Z" fill="#2F2F2F" stroke="#2F2F2F" stroke-width="2" stroke-linecap="round" stroke-linejoin="round"/>
<path d="M7.99998 4.00014C8.36817 4.00014 8.66665 3.70167 8.66665 3.33348C8.66665 2.96529 8.36817 2.66681 7.99998 2.66681C7.63179 2.66681 7.33331 2.96529 7.33331 3.33348C7.33331 3.70167 7.63179 4.00014 7.99998 4.00014Z" fill="#2F2F2F" stroke="#2F2F2F" stroke-width="2" stroke-linecap="round" stroke-linejoin="round"/>
<path d="M7.99998 13.3335C8.36817 13.3335 8.66665 13.035 8.66665 12.6668C8.66665 12.2987 8.36817 12.0002 7.99998 12.0002C7.63179 12.0002 7.33331 12.2987 7.33331 12.6668C7.33331 13.035 7.63179 13.3335 7.99998 13.3335Z" fill="#2F2F2F" stroke="#2F2F2F" stroke-width="2" stroke-linecap="round" stroke-linejoin="round"/>
</svg>
