<svg width="152" height="49" viewBox="0 0 152 49" fill="none" xmlns="http://www.w3.org/2000/svg">
<path d="M11.9884 17.5105C10.7463 16.8202 9.34238 16.4678 7.9188 16.4891C6.52063 16.4724 5.1426 16.8204 3.92271 17.4983C2.75385 18.1489 1.77749 19.0923 1.09112 20.2343C0.388852 21.4313 0.0128668 22.7892 0.00016859 24.1741V36.6015C-0.00276668 36.7889 0.0326543 36.975 0.104289 37.1485C0.175924 37.322 0.282285 37.4792 0.416938 37.6108C0.549956 37.7438 0.708561 37.8489 0.883336 37.9199C1.05811 37.991 1.24549 38.0264 1.43435 38.0242C1.62418 38.0255 1.8123 37.9885 1.98722 37.9153C2.16215 37.8421 2.32021 37.7344 2.45176 37.5986C2.70949 37.3303 2.85039 36.9721 2.84401 36.6015V30.3392C3.26242 30.7078 3.72323 31.0262 4.2169 31.2876C5.35023 31.8783 6.61417 32.1792 7.89428 32.1631C9.31786 32.1844 10.7218 31.832 11.9639 31.1417C13.1481 30.4746 14.1302 29.5046 14.8078 28.3328C15.4892 27.1077 15.8466 25.7314 15.8466 24.3322C15.8466 22.933 15.4892 21.5566 14.8078 20.3316C14.1386 19.1585 13.1652 18.1844 11.9884 17.5105ZM12.3317 26.9344C11.8956 27.7099 11.2538 28.3522 10.4759 28.7916C9.69798 29.2311 8.81366 29.4509 7.9188 29.4272C7.01175 29.4387 6.11832 29.2077 5.33237 28.7584C4.57417 28.3222 3.94771 27.6923 3.5182 26.9344C3.08678 26.1294 2.86117 25.2317 2.86117 24.32C2.86117 23.4084 3.08678 22.5106 3.5182 21.7057C3.94771 20.9477 4.57417 20.3179 5.33237 19.8817C6.11809 19.4318 7.01168 19.2007 7.9188 19.2129C8.81366 19.1892 9.69798 19.409 10.4759 19.8484C11.2538 20.2878 11.8956 20.9301 12.3317 21.7057C12.7847 22.5029 13.0173 23.4049 13.0058 24.32C13.024 25.2344 12.7955 26.137 12.3439 26.9344H12.3317Z" fill="#087378"/>
<path d="M26.9675 16.7682C26.3955 16.5585 25.7872 16.4634 25.1779 16.4886C24.1201 16.479 23.0804 16.7611 22.1747 17.3033C21.8758 17.4817 21.5928 17.6851 21.3289 17.9113C21.3093 17.5819 21.1699 17.2708 20.9366 17.0358C20.8001 16.9056 20.6386 16.8041 20.4617 16.7373C20.2848 16.6704 20.0961 16.6396 19.9069 16.6466C19.5353 16.6383 19.1749 16.7735 18.9018 17.0236C18.7606 17.156 18.6494 17.3166 18.5755 17.4947C18.5015 17.6729 18.4665 17.8646 18.4728 18.0572V30.5819C18.4698 30.7693 18.5052 30.9554 18.5769 31.1289C18.6485 31.3023 18.7549 31.4596 18.8895 31.5911C19.0225 31.7241 19.1812 31.8293 19.3559 31.9003C19.5307 31.9713 19.7181 32.0068 19.9069 32.0046C20.1002 32.0157 20.2938 31.9869 20.4752 31.9199C20.6567 31.8529 20.8222 31.7492 20.9611 31.6155C21.2189 31.3471 21.3598 30.9889 21.3534 30.6183V22.7631C21.3389 22.1267 21.5045 21.499 21.8314 20.9512C22.157 20.4329 22.6189 20.0124 23.1675 19.7353C23.7887 19.4184 24.4795 19.2597 25.1779 19.2732C25.443 19.2524 25.7094 19.2524 25.9746 19.2732C26.1256 19.2853 26.2772 19.2853 26.4282 19.2732C26.6017 19.2752 26.7748 19.2547 26.943 19.2124C27.1602 19.1525 27.355 19.0308 27.5032 18.8622C27.6513 18.6936 27.7464 18.4856 27.7765 18.2639C27.8471 17.9597 27.804 17.6404 27.6552 17.3653C27.5064 17.0903 27.2621 16.8781 26.9675 16.7682Z" fill="#087378"/>
<path d="M40.0837 17.5104C38.8385 16.8388 37.4437 16.487 36.0263 16.487C34.609 16.487 33.2142 16.8388 31.9689 17.5104C30.7844 18.177 29.8022 19.1471 29.1251 20.3193C28.4437 21.5443 28.0863 22.9207 28.0863 24.3199C28.0863 25.7191 28.4437 27.0954 29.1251 28.3205C29.8027 29.4923 30.7848 30.4623 31.9689 31.1294C33.2142 31.801 34.609 32.1528 36.0263 32.1528C37.4437 32.1528 38.8385 31.801 40.0837 31.1294C41.2581 30.4579 42.2312 29.4884 42.903 28.3205C43.5844 27.0954 43.9418 25.7191 43.9418 24.3199C43.9418 22.9207 43.5844 21.5443 42.903 20.3193C42.2312 19.1514 41.2581 18.1819 40.0837 17.5104ZM40.4514 26.9343C40.0253 27.6906 39.4032 28.3203 38.6495 28.7582C38.0689 29.097 37.4265 29.3186 36.7592 29.4103C36.092 29.5019 35.4131 29.4619 34.7615 29.2924C34.1099 29.1229 33.4985 28.8273 32.9625 28.4226C32.4264 28.0179 31.9763 27.5121 31.638 26.9343C31.1736 26.1405 30.9323 25.2376 30.9393 24.3199C30.925 23.4005 31.1577 22.494 31.6135 21.6934C32.0463 20.9339 32.6772 20.3039 33.4399 19.8694C34.2324 19.4306 35.1249 19.2003 36.0324 19.2003C36.94 19.2003 37.8325 19.4306 38.625 19.8694C39.3893 20.3072 40.0203 20.9416 40.4514 21.7055C40.8917 22.5063 41.1116 23.408 41.0888 24.3199C41.1087 25.2315 40.889 26.1324 40.4514 26.9343Z" fill="#087378"/>
<path d="M57.784 17.5104C56.5388 16.8388 55.144 16.487 53.7266 16.487C52.3093 16.487 50.9145 16.8388 49.6693 17.5104C48.4847 18.177 47.5025 19.1471 46.8254 20.3193C46.144 21.5443 45.7866 22.9207 45.7866 24.3199C45.7866 25.7191 46.144 27.0954 46.8254 28.3205C47.503 29.4923 48.4851 30.4623 49.6693 31.1294C50.9145 31.801 52.3093 32.1528 53.7266 32.1528C55.144 32.1528 56.5388 31.801 57.784 31.1294C58.9629 30.4596 59.9404 29.49 60.6156 28.3205C61.297 27.0954 61.6544 25.7191 61.6544 24.3199C61.6544 22.9207 61.297 21.5443 60.6156 20.3193C59.9404 19.1498 58.9629 18.1801 57.784 17.5104ZM58.1272 26.9343C57.7011 27.6906 57.079 28.3203 56.3253 28.7582C55.7447 29.097 55.1023 29.3186 54.435 29.4103C53.7678 29.5019 53.0889 29.4619 52.4373 29.2924C51.7857 29.1229 51.1743 28.8273 50.6383 28.4226C50.1022 28.0179 49.6521 27.5121 49.3138 26.9343C48.8579 26.1381 48.6252 25.2354 48.6396 24.3199C48.6254 23.4005 48.8581 22.494 49.3138 21.6934C49.7467 20.9339 50.3775 20.3039 51.1402 19.8694C51.9327 19.4306 52.8252 19.2003 53.7328 19.2003C54.6403 19.2003 55.5328 19.4306 56.3253 19.8694C57.079 20.3073 57.7011 20.937 58.1272 21.6934C58.5952 22.4907 58.8407 23.3973 58.8382 24.3199C58.8356 25.238 58.5905 26.1394 58.1272 26.9343Z" fill="#087378"/>
<path d="M65.838 31.6155C65.971 31.7485 66.1296 31.8537 66.3044 31.9247C66.4792 31.9957 66.6665 32.0312 66.8554 32.029C67.0501 32.034 67.2439 32 67.425 31.9289C67.6062 31.8579 67.771 31.7513 67.9096 31.6155C68.0442 31.484 68.1506 31.3267 68.2222 31.1533C68.2939 30.9798 68.3293 30.7937 68.3263 30.6063V19.8326H71.0966C71.4542 19.8326 71.7972 19.6917 72.0501 19.4408C72.3029 19.19 72.445 18.8498 72.445 18.495C72.445 18.1403 72.3029 17.8 72.0501 17.5492C71.7972 17.2984 71.4542 17.1574 71.0966 17.1574H68.3263C68.3243 16.4602 68.4319 15.7668 68.645 15.1024C68.8096 14.5722 69.1349 14.1051 69.5766 13.7648C70.0846 13.4227 70.692 13.256 71.305 13.2906C71.679 13.3041 72.0436 13.1734 72.3224 12.9258C72.4602 12.7994 72.5701 12.6461 72.6453 12.4756C72.7205 12.305 72.7593 12.1209 72.7593 11.9348C72.7593 11.7486 72.7205 11.5645 72.6453 11.3939C72.5701 11.2234 72.4602 11.0701 72.3224 10.9437C72.0436 10.6962 71.679 10.5654 71.305 10.5789C70.1331 10.5384 68.9759 10.8476 67.9831 11.4666C67.0974 12.0598 66.4169 12.9088 66.0341 13.8986C65.6367 14.931 65.4372 16.028 65.4457 17.1331H64.0483C63.8697 17.1285 63.692 17.1595 63.5256 17.2243C63.3593 17.289 63.2077 17.3862 63.0799 17.5101C62.8333 17.7677 62.6959 18.1094 62.6959 18.4646C62.6959 18.8199 62.8333 19.1616 63.0799 19.4192C63.2077 19.543 63.3593 19.6402 63.5256 19.705C63.692 19.7697 63.8697 19.8007 64.0483 19.7961H65.4335V30.5455C65.4203 30.7421 65.4496 30.9392 65.5194 31.1238C65.5891 31.3083 65.6978 31.4759 65.838 31.6155Z" fill="#087378"/>
<path d="M85.8915 31.6157C86.0301 31.7515 86.1949 31.8581 86.376 31.9291C86.5572 32.0002 86.7509 32.0342 86.9456 32.0291C87.1357 32.0319 87.3242 31.9955 87.4994 31.9223C87.6745 31.849 87.8324 31.7405 87.963 31.6035C88.2163 31.3333 88.3527 30.9753 88.343 30.6064V24.3198C88.3611 22.9141 88.0014 21.5291 87.3011 20.307C86.6259 19.1375 85.6485 18.1679 84.4695 17.4981C83.2243 16.8265 81.8295 16.4747 80.4122 16.4747C78.9948 16.4747 77.6 16.8265 76.3548 17.4981C75.1822 18.1732 74.213 19.1473 73.5477 20.3192C72.8663 21.5442 72.5089 22.9206 72.5089 24.3198C72.5089 25.719 72.8663 27.0953 73.5477 28.3204C74.2253 29.4922 75.2074 30.4622 76.3916 31.1293C77.6337 31.8196 79.0376 32.172 80.4612 32.1507C81.7428 32.1672 83.0078 31.8618 84.1386 31.2631C84.6231 30.9992 85.0756 30.6809 85.4869 30.3146V30.5821C85.479 30.7727 85.5109 30.9629 85.5805 31.1408C85.6501 31.3186 85.756 31.4803 85.8915 31.6157ZM84.825 26.9585C84.3989 27.7148 83.7768 28.3445 83.0231 28.7824C82.4405 29.1221 81.7958 29.3438 81.1262 29.4347C80.4567 29.5257 79.7756 29.484 79.1224 29.3121C78.4693 29.1402 77.8569 28.8415 77.3208 28.4334C76.7847 28.0252 76.3356 27.5156 75.9993 26.9341C75.5477 26.1368 75.3192 25.2342 75.3374 24.3198C75.3216 23.4056 75.5499 22.5036 75.9993 21.7054C76.4322 20.9459 77.063 20.3159 77.8257 19.8814C78.6182 19.4427 79.5107 19.2124 80.4183 19.2124C81.3259 19.2124 82.2183 19.4427 83.0108 19.8814C83.7645 20.3193 84.3866 20.949 84.8128 21.7054C85.2452 22.5101 85.4714 23.4079 85.4714 24.3198C85.4714 25.2316 85.2452 26.1295 84.8128 26.9341L84.825 26.9585Z" fill="#087378"/>
<path d="M95.1708 19.8815C95.8694 19.4407 96.6845 19.2164 97.5121 19.237C98.2262 19.2184 98.935 19.3634 99.5835 19.6608C100.232 19.9581 100.802 20.3998 101.251 20.9515C101.475 21.2424 101.805 21.4345 102.17 21.4866H102.354C102.632 21.4947 102.904 21.4089 103.126 21.2434C103.288 21.1474 103.427 21.0187 103.534 20.8658C103.642 20.7128 103.716 20.539 103.751 20.3557C103.784 20.1715 103.776 19.9824 103.728 19.8017C103.679 19.621 103.591 19.4531 103.469 19.3099C102.773 18.4096 101.87 17.6882 100.834 17.2063C99.7904 16.7394 98.6569 16.5029 97.5121 16.5132C96.1682 16.4914 94.8458 16.8499 93.6999 17.5468C92.598 18.238 91.7012 19.2074 91.1012 20.3557C90.4693 21.5819 90.1494 22.9428 90.1696 24.3198C90.1502 25.7056 90.4967 27.0722 91.1747 28.2839C91.841 29.4694 92.8185 30.4538 94.0033 31.1325C95.1882 31.8112 96.5363 32.1589 97.9044 32.1386C99.8085 32.1915 101.66 31.5168 103.077 30.2538C103.226 30.1318 103.343 29.9769 103.419 29.8015C103.496 29.6262 103.53 29.4354 103.518 29.2446C103.51 29.0616 103.464 28.8822 103.384 28.7172C103.304 28.5521 103.191 28.4048 103.053 28.2839C102.922 28.1574 102.766 28.0595 102.595 27.9967C102.424 27.9338 102.242 27.9074 102.06 27.9191C101.721 27.9511 101.403 28.092 101.153 28.3204C100.744 28.6912 100.259 28.9692 99.7308 29.1351C99.1448 29.3229 98.5324 29.4173 97.9166 29.4148C97.0489 29.4468 96.1897 29.2356 95.4374 28.8055C94.6851 28.3753 94.0702 27.7437 93.6631 26.9828C93.2304 26.1621 93.0153 25.2457 93.038 24.3198C93.02 23.396 93.2172 22.4805 93.6141 21.6446C93.9597 20.9261 94.4983 20.316 95.1708 19.8815Z" fill="#087378"/>
<path d="M113.497 29.1838H112.921C112.56 29.2015 112.199 29.1447 111.861 29.017C111.524 28.8894 111.217 28.6936 110.959 28.442C110.705 28.1799 110.507 27.8688 110.378 27.5279C110.25 27.187 110.193 26.8235 110.212 26.46V19.8328H113.006C113.189 19.8408 113.371 19.8114 113.542 19.7466C113.713 19.6817 113.869 19.5828 113.999 19.4559C114.246 19.1983 114.383 18.8566 114.383 18.5013C114.383 18.1461 114.246 17.8044 113.999 17.5468C113.871 17.4229 113.72 17.3257 113.554 17.261C113.387 17.1962 113.209 17.1652 113.031 17.1698H110.212V13.607C110.216 13.4158 110.181 13.2257 110.109 13.0481C110.038 12.8705 109.931 12.709 109.795 12.5734C109.657 12.4413 109.493 12.3378 109.314 12.2689C109.136 12.2 108.945 12.1671 108.753 12.1721C108.565 12.1683 108.378 12.2019 108.203 12.2708C108.029 12.3397 107.869 12.4426 107.735 12.5734C107.599 12.709 107.493 12.8705 107.421 13.0481C107.349 13.2257 107.315 13.4158 107.319 13.607V17.1577H105.934C105.576 17.1577 105.233 17.2986 104.98 17.5494C104.727 17.8003 104.585 18.1405 104.585 18.4953C104.585 18.85 104.727 19.1902 104.98 19.4411C105.233 19.6919 105.576 19.8328 105.934 19.8328H107.319V26.4235C107.306 27.4167 107.551 28.3965 108.03 29.2689C108.495 30.1056 109.187 30.7964 110.028 31.2631C110.909 31.7477 111.9 32.0028 112.908 32.0049H113.509C113.701 32.0099 113.892 31.977 114.071 31.9081C114.249 31.8392 114.413 31.7357 114.551 31.6036C114.686 31.4721 114.792 31.3148 114.864 31.1413C114.935 30.9679 114.971 30.7818 114.968 30.5943C114.969 30.4044 114.932 30.2162 114.858 30.041C114.785 29.8658 114.675 29.7074 114.538 29.5754C114.4 29.4434 114.237 29.3407 114.058 29.2733C113.879 29.206 113.688 29.1755 113.497 29.1838Z" fill="#087378"/>
<path d="M120.128 11.7221C119.782 11.441 119.35 11.2864 118.903 11.2843C118.456 11.2893 118.024 11.4435 117.677 11.7221C117.47 11.8881 117.306 12.1001 117.197 12.341C117.088 12.5819 117.039 12.8447 117.052 13.1083C117.008 13.3728 117.023 13.6435 117.095 13.9017C117.167 14.16 117.295 14.3995 117.47 14.6038C117.645 14.808 117.863 14.9721 118.108 15.0846C118.353 15.1971 118.62 15.2554 118.89 15.2554C119.16 15.2554 119.427 15.1971 119.673 15.0846C119.918 14.9721 120.135 14.808 120.31 14.6038C120.485 14.3995 120.613 14.16 120.686 13.9017C120.758 13.6435 120.773 13.3728 120.729 13.1083C120.744 12.8469 120.697 12.5856 120.593 12.345C120.489 12.1044 120.33 11.8912 120.128 11.7221Z" fill="#087378"/>
<path d="M118.902 16.6351C118.53 16.6268 118.17 16.762 117.897 17.0121C117.755 17.1445 117.644 17.305 117.57 17.4832C117.496 17.6614 117.461 17.8531 117.468 18.0457V30.5704C117.465 30.7578 117.5 30.9439 117.572 31.1174C117.643 31.2908 117.75 31.4481 117.884 31.5796C118.017 31.7126 118.176 31.8178 118.351 31.8888C118.526 31.9598 118.713 31.9953 118.902 31.9931C119.098 31.9995 119.293 31.9649 119.474 31.8916C119.656 31.8182 119.82 31.7078 119.956 31.5675C120.209 31.2972 120.346 30.9392 120.336 30.5704V18.0578C120.347 17.8682 120.317 17.6786 120.248 17.5012C120.18 17.3238 120.075 17.1627 119.94 17.0284C119.804 16.8941 119.642 16.7897 119.463 16.7219C119.284 16.6542 119.093 16.6246 118.902 16.6351Z" fill="#087378"/>
<path d="M136.345 16.7198C136.161 16.6343 135.961 16.5887 135.757 16.5861C135.594 16.5877 135.432 16.6165 135.279 16.6712C135.101 16.7307 134.937 16.8262 134.797 16.9518C134.658 17.0774 134.547 17.2303 134.47 17.4008L129.8 27.5664L125.031 17.4251C124.959 17.2616 124.854 17.1139 124.724 16.9908C124.593 16.8676 124.44 16.7714 124.271 16.7077C124.118 16.6508 123.957 16.622 123.793 16.6225C123.59 16.6245 123.389 16.6701 123.205 16.7563C123.038 16.8269 122.887 16.93 122.76 17.0595C122.634 17.1889 122.535 17.3422 122.469 17.5102C122.334 17.85 122.334 18.2284 122.469 18.5681L128.402 31.1049C128.499 31.3762 128.678 31.611 128.916 31.7765C129.153 31.9421 129.436 32.0304 129.726 32.0291C130.028 32.0341 130.324 31.9501 130.577 31.7877C130.83 31.6253 131.029 31.3919 131.148 31.1171L137.02 18.5316C137.097 18.3637 137.137 18.1812 137.137 17.9966C137.137 17.812 137.097 17.6295 137.02 17.4616C136.894 17.141 136.654 16.8772 136.345 16.7198Z" fill="#087378"/>
<path d="M151.582 25.073C151.719 24.9456 151.826 24.7908 151.898 24.6189C151.97 24.447 152.004 24.2619 151.999 24.0759C152.024 22.7246 151.712 21.3879 151.092 20.1848C150.502 19.0728 149.616 18.1431 148.53 17.4974C147.683 16.9888 146.74 16.6577 145.759 16.5246C144.778 16.3915 143.78 16.4592 142.827 16.7236C141.874 16.9879 140.985 17.4433 140.216 18.0616C139.447 18.6799 138.814 19.448 138.356 20.3185C137.719 21.5603 137.399 22.9382 137.424 24.3313C137.401 25.7313 137.743 27.1135 138.417 28.344C139.061 29.5061 140.015 30.4697 141.175 31.1286C142.391 31.804 143.765 32.148 145.159 32.1258C146.114 32.1158 147.06 31.9388 147.953 31.6029C148.83 31.304 149.642 30.8418 150.344 30.241C150.497 30.1129 150.616 29.9494 150.691 29.765C150.766 29.5806 150.794 29.3808 150.773 29.1831C150.761 28.9927 150.708 28.807 150.617 28.639C150.526 28.471 150.4 28.3247 150.246 28.2103C149.98 27.9862 149.638 27.8691 149.29 27.882C148.939 27.8939 148.606 28.0373 148.358 28.2832C147.957 28.6339 147.484 28.8951 146.973 29.0493C146.382 29.254 145.76 29.3608 145.134 29.3655C144.245 29.3829 143.368 29.1601 142.597 28.721C141.869 28.2993 141.275 27.6844 140.881 26.9456C140.622 26.4625 140.444 25.941 140.354 25.4013H150.552C150.926 25.4307 151.296 25.3127 151.582 25.073ZM140.452 22.8113C140.542 22.3896 140.686 21.981 140.881 21.5953C141.241 20.8722 141.792 20.2589 142.474 19.82C143.16 19.3914 143.956 19.1716 144.766 19.1876C145.604 19.1634 146.431 19.3832 147.144 19.82C147.819 20.2487 148.355 20.8607 148.689 21.5831C148.872 21.97 149.004 22.3787 149.081 22.7991L140.452 22.8113Z" fill="#087378"/>
<path d="M68.718 3.03997H111.841V8.71863H114.918V0H65.6413V8.71863H68.718V3.03997Z" fill="#087378"/>
<path d="M111.841 45.5999H68.718V39.9213H65.6413V48.6399H114.918V39.9213H111.841V45.5999Z" fill="#087378"/>
</svg>
